<svg width="29" height="29" viewBox="0 0 29 29" fill="none" xmlns="http://www.w3.org/2000/svg">
<path d="M28.2272 11.7579H27.0995V11.6998H14.4998V17.2997H22.4117C21.2574 20.5596 18.1558 22.8996 14.4998 22.8996C9.86094 22.8996 6.0999 19.1386 6.0999 14.4998C6.0999 9.86094 9.86094 6.0999 14.4998 6.0999C16.641 6.0999 18.5891 6.90769 20.0724 8.22717L24.0322 4.26734C21.5318 1.93708 18.1873 0.5 14.4998 0.5C6.76839 0.5 0.5 6.76839 0.5 14.4998C0.5 22.2311 6.76839 28.4995 14.4998 28.4995C22.2311 28.4995 28.4995 22.2311 28.4995 14.4998C28.4995 13.5611 28.4029 12.6448 28.2272 11.7579Z" fill="#FFC107"/>
<path d="M2.11414 7.98357L6.71376 11.3568C7.95834 8.27547 10.9725 6.0999 14.4997 6.0999C16.641 6.0999 18.5891 6.90769 20.0723 8.22717L24.0322 4.26734C21.5318 1.93708 18.1873 0.5 14.4997 0.5C9.12242 0.5 4.4591 3.53585 2.11414 7.98357Z" fill="#FF3D00"/>
<path d="M14.4998 28.4999C18.1159 28.4999 21.4017 27.116 23.8859 24.8656L19.553 21.199C18.1002 22.3039 16.325 22.9014 14.4998 22.9C10.8584 22.9 7.7666 20.5781 6.60182 17.3379L2.0365 20.8553C4.35346 25.3892 9.05878 28.4999 14.4998 28.4999Z" fill="#4CAF50"/>
<path d="M28.2272 11.7578H27.0995V11.6997H14.4998V17.2996H22.4117C21.8596 18.8511 20.865 20.2068 19.5509 21.1992L19.553 21.1978L23.8859 24.8644C23.5793 25.143 28.4995 21.4995 28.4995 14.4997C28.4995 13.561 28.4029 12.6447 28.2272 11.7578Z" fill="#1976D2"/>
</svg>
